<svg xmlns="http://www.w3.org/2000/svg" xmlns:xlink="http://www.w3.org/1999/xlink" width="1080" zoomAndPan="magnify" viewBox="0 0 810 809.999993" height="1080" preserveAspectRatio="xMidYMid meet" version="1.2"><defs><clipPath id="4c097dfa3f"><path d="M 202.5 0 L 607.5 0 C 610.8125 0 614.125 0.0820312 617.4375 0.242188 C 620.746094 0.40625 624.050781 0.648438 627.347656 0.976562 C 630.648438 1.300781 633.933594 1.707031 637.210938 2.191406 C 640.492188 2.679688 643.753906 3.246094 647.003906 3.890625 C 650.257812 4.539062 653.488281 5.261719 656.703125 6.070312 C 659.917969 6.875 663.109375 7.757812 666.28125 8.71875 C 669.453125 9.679688 672.601562 10.722656 675.71875 11.835938 C 678.839844 12.953125 681.929688 14.144531 684.992188 15.414062 C 688.054688 16.683594 691.082031 18.023438 694.078125 19.441406 C 697.074219 20.859375 700.035156 22.347656 702.957031 23.910156 C 705.878906 25.472656 708.761719 27.105469 711.605469 28.808594 C 714.449219 30.515625 717.246094 32.285156 720.003906 34.128906 C 722.757812 35.96875 725.46875 37.875 728.128906 39.851562 C 730.789062 41.824219 733.402344 43.863281 735.964844 45.964844 C 738.527344 48.066406 741.035156 50.230469 743.492188 52.457031 C 745.945312 54.683594 748.34375 56.96875 750.6875 59.3125 C 753.03125 61.652344 755.316406 64.054688 757.542969 66.507812 C 759.769531 68.964844 761.933594 71.472656 764.035156 74.035156 C 766.136719 76.597656 768.175781 79.210938 770.148438 81.871094 C 772.125 84.53125 774.03125 87.242188 775.871094 89.996094 C 777.714844 92.753906 779.484375 95.550781 781.191406 98.394531 C 782.894531 101.238281 784.527344 104.121094 786.089844 107.042969 C 787.652344 109.964844 789.140625 112.925781 790.558594 115.921875 C 791.976562 118.914062 793.316406 121.945312 794.585938 125.007812 C 795.855469 128.070312 797.046875 131.160156 798.164062 134.28125 C 799.277344 137.398438 800.316406 140.546875 801.28125 143.71875 C 802.242188 146.890625 803.125 150.082031 803.929688 153.296875 C 804.738281 156.511719 805.460938 159.742188 806.109375 162.996094 C 806.753906 166.246094 807.320312 169.507812 807.808594 172.785156 C 808.292969 176.066406 808.699219 179.351562 809.023438 182.652344 C 809.351562 185.949219 809.59375 189.253906 809.757812 192.5625 C 809.917969 195.875 810 199.1875 810 202.5 L 810 607.5 C 810 610.8125 809.917969 614.125 809.757812 617.4375 C 809.59375 620.746094 809.351562 624.050781 809.023438 627.347656 C 808.699219 630.648438 808.292969 633.933594 807.808594 637.210938 C 807.320312 640.492188 806.753906 643.753906 806.109375 647.003906 C 805.460938 650.257812 804.738281 653.488281 803.929688 656.703125 C 803.125 659.917969 802.242188 663.109375 801.28125 666.28125 C 800.316406 669.453125 799.277344 672.601562 798.164062 675.71875 C 797.046875 678.839844 795.855469 681.929688 794.585938 684.992188 C 793.316406 688.054688 791.976562 691.082031 790.558594 694.078125 C 789.140625 697.074219 787.652344 700.035156 786.089844 702.957031 C 784.527344 705.878906 782.894531 708.761719 781.191406 711.605469 C 779.484375 714.449219 777.714844 717.246094 775.871094 720.003906 C 774.03125 722.757812 772.125 725.46875 770.148438 728.128906 C 768.175781 730.789062 766.136719 733.402344 764.035156 735.964844 C 761.933594 738.527344 759.769531 741.035156 757.542969 743.492188 C 755.316406 745.945312 753.03125 748.34375 750.6875 750.6875 C 748.34375 753.03125 745.945312 755.316406 743.492188 757.542969 C 741.035156 759.769531 738.527344 761.933594 735.964844 764.035156 C 733.402344 766.136719 730.789062 768.175781 728.128906 770.148438 C 725.46875 772.125 722.757812 774.03125 720.003906 775.871094 C 717.246094 777.714844 714.449219 779.484375 711.605469 781.191406 C 708.761719 782.894531 705.878906 784.527344 702.957031 786.089844 C 700.035156 787.652344 697.074219 789.140625 694.078125 790.558594 C 691.082031 791.976562 688.054688 793.316406 684.992188 794.585938 C 681.929688 795.855469 678.839844 797.046875 675.71875 798.164062 C 672.601562 799.277344 669.453125 800.316406 666.28125 801.28125 C 663.109375 802.242188 659.917969 803.125 656.703125 803.929688 C 653.488281 804.738281 650.257812 805.460938 647.003906 806.109375 C 643.753906 806.753906 640.492188 807.320312 637.210938 807.808594 C 633.933594 808.292969 630.648438 808.699219 627.347656 809.023438 C 624.050781 809.351562 620.746094 809.59375 617.4375 809.757812 C 614.125 809.917969 610.8125 810 607.5 810 L 202.5 810 C 199.1875 810 195.875 809.917969 192.5625 809.757812 C 189.253906 809.59375 185.949219 809.351562 182.652344 809.023438 C 179.351562 808.699219 176.066406 808.292969 172.785156 807.808594 C 169.507812 807.320312 166.246094 806.753906 162.996094 806.109375 C 159.742188 805.460938 156.511719 804.738281 153.296875 803.929688 C 150.082031 803.125 146.890625 802.242188 143.71875 801.28125 C 140.546875 800.316406 137.398438 799.277344 134.28125 798.164062 C 131.160156 797.046875 128.070312 795.855469 125.007812 794.585938 C 121.945312 793.316406 118.914062 791.976562 115.921875 790.558594 C 112.925781 789.140625 109.964844 787.652344 107.042969 786.089844 C 104.121094 784.527344 101.238281 782.894531 98.394531 781.191406 C 95.550781 779.484375 92.753906 777.714844 89.996094 775.871094 C 87.242188 774.03125 84.53125 772.125 81.871094 770.148438 C 79.210938 768.175781 76.597656 766.136719 74.035156 764.035156 C 71.472656 761.933594 68.964844 759.769531 66.507812 757.542969 C 64.054688 755.316406 61.652344 753.03125 59.3125 750.6875 C 56.96875 748.34375 54.683594 745.945312 52.457031 743.492188 C 50.230469 741.035156 48.066406 738.527344 45.964844 735.964844 C 43.863281 733.402344 41.824219 730.789062 39.851562 728.128906 C 37.875 725.46875 35.96875 722.757812 34.128906 720.003906 C 32.285156 717.246094 30.515625 714.449219 28.808594 711.605469 C 27.105469 708.761719 25.472656 705.878906 23.910156 702.957031 C 22.347656 700.035156 20.859375 697.074219 19.441406 694.078125 C 18.023438 691.082031 16.683594 688.054688 15.414062 684.992188 C 14.144531 681.929688 12.953125 678.839844 11.835938 675.71875 C 10.722656 672.601562 9.679688 669.453125 8.71875 666.28125 C 7.757812 663.109375 6.875 659.917969 6.070312 656.703125 C 5.261719 653.488281 4.539062 650.257812 3.890625 647.003906 C 3.246094 643.753906 2.679688 640.492188 2.191406 637.210938 C 1.707031 633.933594 1.300781 630.648438 0.976562 627.347656 C 0.648438 624.050781 0.40625 620.746094 0.242188 617.4375 C 0.0820312 614.125 0 610.8125 0 607.5 L 0 202.5 C 0 199.1875 0.0820312 195.875 0.242188 192.5625 C 0.40625 189.253906 0.648438 185.949219 0.976562 182.652344 C 1.300781 179.351562 1.707031 176.066406 2.191406 172.785156 C 2.679688 169.507812 3.246094 166.246094 3.890625 162.996094 C 4.539062 159.742188 5.261719 156.511719 6.070312 153.296875 C 6.875 150.082031 7.757812 146.890625 8.71875 143.71875 C 9.679688 140.546875 10.722656 137.398438 11.835938 134.28125 C 12.953125 131.160156 14.144531 128.070312 15.414062 125.007812 C 16.683594 121.945312 18.023438 118.914062 19.441406 115.921875 C 20.859375 112.925781 22.347656 109.964844 23.910156 107.042969 C 25.472656 104.121094 27.105469 101.238281 28.808594 98.394531 C 30.515625 95.550781 32.285156 92.753906 34.128906 89.996094 C 35.96875 87.242188 37.875 84.53125 39.851562 81.871094 C 41.824219 79.210938 43.863281 76.597656 45.964844 74.035156 C 48.066406 71.472656 50.230469 68.964844 52.457031 66.507812 C 54.683594 64.054688 56.96875 61.652344 59.3125 59.3125 C 61.652344 56.96875 64.054688 54.683594 66.507812 52.457031 C 68.964844 50.230469 71.472656 48.066406 74.035156 45.964844 C 76.597656 43.863281 79.210938 41.824219 81.871094 39.851562 C 84.53125 37.875 87.242188 35.96875 89.996094 34.128906 C 92.753906 32.285156 95.550781 30.515625 98.394531 28.808594 C 101.238281 27.105469 104.121094 25.472656 107.042969 23.910156 C 109.964844 22.347656 112.925781 20.859375 115.921875 19.441406 C 118.914062 18.023438 121.945312 16.683594 125.007812 15.414062 C 128.070312 14.144531 131.160156 12.953125 134.28125 11.835938 C 137.398438 10.722656 140.546875 9.679688 143.71875 8.71875 C 146.890625 7.757812 150.082031 6.875 153.296875 6.070312 C 156.511719 5.261719 159.742188 4.539062 162.996094 3.890625 C 166.246094 3.246094 169.507812 2.679688 172.785156 2.191406 C 176.066406 1.707031 179.351562 1.300781 182.652344 0.976562 C 185.949219 0.648438 189.253906 0.40625 192.5625 0.242188 C 195.875 0.0820312 199.1875 0 202.5 0 Z M 202.5 0 "/></clipPath><linearGradient x1="0" gradientTransform="matrix(809.999993,0,0,809.999993,0.0000035,0.00002)" y1="0" x2="1" gradientUnits="userSpaceOnUse" y2="1" id="a1e76ec301"><stop style="stop-color:#ec4899;stop-opacity:1;" offset="0"/><stop style="stop-color:#eb489a;stop-opacity:1;" offset="0.00390625"/><stop style="stop-color:#ea489a;stop-opacity:1;" offset="0.0078125"/><stop style="stop-color:#ea489b;stop-opacity:1;" offset="0.0117188"/><stop style="stop-color:#e9499c;stop-opacity:1;" offset="0.015625"/><stop style="stop-color:#e8499d;stop-opacity:1;" offset="0.0195313"/><stop style="stop-color:#e7499d;stop-opacity:1;" offset="0.0234375"/><stop style="stop-color:#e7499e;stop-opacity:1;" offset="0.0273438"/><stop style="stop-color:#e6499f;stop-opacity:1;" offset="0.03125"/><stop style="stop-color:#e549a0;stop-opacity:1;" offset="0.0351563"/><stop style="stop-color:#e449a0;stop-opacity:1;" offset="0.0390625"/><stop style="stop-color:#e44aa1;stop-opacity:1;" offset="0.0429688"/><stop style="stop-color:#e34aa2;stop-opacity:1;" offset="0.046875"/><stop style="stop-color:#e24aa2;stop-opacity:1;" offset="0.0507812"/><stop style="stop-color:#e14aa3;stop-opacity:1;" offset="0.0546875"/><stop style="stop-color:#e14aa4;stop-opacity:1;" offset="0.0585938"/><stop style="stop-color:#e04aa5;stop-opacity:1;" offset="0.0625"/><stop style="stop-color:#df4ba5;stop-opacity:1;" offset="0.0664063"/><stop style="stop-color:#de4ba6;stop-opacity:1;" offset="0.0703125"/><stop style="stop-color:#dd4ba7;stop-opacity:1;" offset="0.0742188"/><stop style="stop-color:#dd4ba8;stop-opacity:1;" offset="0.078125"/><stop style="stop-color:#dc4ba8;stop-opacity:1;" offset="0.0820313"/><stop style="stop-color:#db4ba9;stop-opacity:1;" offset="0.0859375"/><stop style="stop-color:#da4caa;stop-opacity:1;" offset="0.0898438"/><stop style="stop-color:#da4caa;stop-opacity:1;" offset="0.09375"/><stop style="stop-color:#d94cab;stop-opacity:1;" offset="0.0976562"/><stop style="stop-color:#d84cac;stop-opacity:1;" offset="0.101562"/><stop style="stop-color:#d74cad;stop-opacity:1;" offset="0.105469"/><stop style="stop-color:#d74cad;stop-opacity:1;" offset="0.109375"/><stop style="stop-color:#d64cae;stop-opacity:1;" offset="0.113281"/><stop style="stop-color:#d54daf;stop-opacity:1;" offset="0.117188"/><stop style="stop-color:#d44db0;stop-opacity:1;" offset="0.121094"/><stop style="stop-color:#d44db0;stop-opacity:1;" offset="0.125"/><stop style="stop-color:#d34db1;stop-opacity:1;" offset="0.128906"/><stop style="stop-color:#d24db2;stop-opacity:1;" offset="0.132813"/><stop style="stop-color:#d14db2;stop-opacity:1;" offset="0.136719"/><stop style="stop-color:#d14eb3;stop-opacity:1;" offset="0.140625"/><stop style="stop-color:#d04eb4;stop-opacity:1;" offset="0.144531"/><stop style="stop-color:#cf4eb5;stop-opacity:1;" offset="0.148438"/><stop style="stop-color:#ce4eb5;stop-opacity:1;" offset="0.152344"/><stop style="stop-color:#ce4eb6;stop-opacity:1;" offset="0.15625"/><stop style="stop-color:#cd4eb7;stop-opacity:1;" offset="0.160156"/><stop style="stop-color:#cc4fb8;stop-opacity:1;" offset="0.164063"/><stop style="stop-color:#cb4fb8;stop-opacity:1;" offset="0.167969"/><stop style="stop-color:#cb4fb9;stop-opacity:1;" offset="0.171875"/><stop style="stop-color:#ca4fba;stop-opacity:1;" offset="0.175781"/><stop style="stop-color:#c94fba;stop-opacity:1;" offset="0.179688"/><stop style="stop-color:#c84fbb;stop-opacity:1;" offset="0.183594"/><stop style="stop-color:#c84fbc;stop-opacity:1;" offset="0.1875"/><stop style="stop-color:#c750bd;stop-opacity:1;" offset="0.191406"/><stop style="stop-color:#c650bd;stop-opacity:1;" offset="0.195312"/><stop style="stop-color:#c550be;stop-opacity:1;" offset="0.199219"/><stop style="stop-color:#c550bf;stop-opacity:1;" offset="0.203125"/><stop style="stop-color:#c450c0;stop-opacity:1;" offset="0.207031"/><stop style="stop-color:#c350c0;stop-opacity:1;" offset="0.210938"/><stop style="stop-color:#c251c1;stop-opacity:1;" offset="0.214844"/><stop style="stop-color:#c151c2;stop-opacity:1;" offset="0.21875"/><stop style="stop-color:#c151c2;stop-opacity:1;" offset="0.222656"/><stop style="stop-color:#c051c3;stop-opacity:1;" offset="0.226562"/><stop style="stop-color:#bf51c4;stop-opacity:1;" offset="0.230469"/><stop style="stop-color:#be51c5;stop-opacity:1;" offset="0.234375"/><stop style="stop-color:#be52c5;stop-opacity:1;" offset="0.238281"/><stop style="stop-color:#bd52c6;stop-opacity:1;" offset="0.242188"/><stop style="stop-color:#bc52c7;stop-opacity:1;" offset="0.246094"/><stop style="stop-color:#bb52c8;stop-opacity:1;" offset="0.25"/><stop style="stop-color:#bb52c8;stop-opacity:1;" offset="0.253906"/><stop style="stop-color:#ba52c9;stop-opacity:1;" offset="0.257813"/><stop style="stop-color:#b952ca;stop-opacity:1;" offset="0.261719"/><stop style="stop-color:#b853ca;stop-opacity:1;" offset="0.265625"/><stop style="stop-color:#b853cb;stop-opacity:1;" offset="0.269531"/><stop style="stop-color:#b753cc;stop-opacity:1;" offset="0.273438"/><stop style="stop-color:#b653cd;stop-opacity:1;" offset="0.277344"/><stop style="stop-color:#b553cd;stop-opacity:1;" offset="0.28125"/><stop style="stop-color:#b553ce;stop-opacity:1;" offset="0.285156"/><stop style="stop-color:#b454cf;stop-opacity:1;" offset="0.289063"/><stop style="stop-color:#b354d0;stop-opacity:1;" offset="0.292969"/><stop style="stop-color:#b254d0;stop-opacity:1;" offset="0.296875"/><stop style="stop-color:#b254d1;stop-opacity:1;" offset="0.300781"/><stop style="stop-color:#b154d2;stop-opacity:1;" offset="0.304688"/><stop style="stop-color:#b054d2;stop-opacity:1;" offset="0.308594"/><stop style="stop-color:#af54d3;stop-opacity:1;" offset="0.3125"/><stop style="stop-color:#af55d4;stop-opacity:1;" offset="0.316406"/><stop style="stop-color:#ae55d5;stop-opacity:1;" offset="0.320313"/><stop style="stop-color:#ad55d5;stop-opacity:1;" offset="0.324219"/><stop style="stop-color:#ac55d6;stop-opacity:1;" offset="0.328125"/><stop style="stop-color:#ac55d7;stop-opacity:1;" offset="0.332031"/><stop style="stop-color:#ab55d8;stop-opacity:1;" offset="0.335938"/><stop style="stop-color:#aa56d8;stop-opacity:1;" offset="0.339844"/><stop style="stop-color:#a956d9;stop-opacity:1;" offset="0.34375"/><stop style="stop-color:#a856da;stop-opacity:1;" offset="0.347656"/><stop style="stop-color:#a856da;stop-opacity:1;" offset="0.351563"/><stop style="stop-color:#a756db;stop-opacity:1;" offset="0.355469"/><stop style="stop-color:#a656dc;stop-opacity:1;" offset="0.359375"/><stop style="stop-color:#a557dd;stop-opacity:1;" offset="0.363281"/><stop style="stop-color:#a557dd;stop-opacity:1;" offset="0.367188"/><stop style="stop-color:#a457de;stop-opacity:1;" offset="0.371094"/><stop style="stop-color:#a357df;stop-opacity:1;" offset="0.375"/><stop style="stop-color:#a257e0;stop-opacity:1;" offset="0.378906"/><stop style="stop-color:#a257e0;stop-opacity:1;" offset="0.382812"/><stop style="stop-color:#a157e1;stop-opacity:1;" offset="0.386719"/><stop style="stop-color:#a058e2;stop-opacity:1;" offset="0.390625"/><stop style="stop-color:#9f58e2;stop-opacity:1;" offset="0.394531"/><stop style="stop-color:#9f58e3;stop-opacity:1;" offset="0.398438"/><stop style="stop-color:#9e58e4;stop-opacity:1;" offset="0.402344"/><stop style="stop-color:#9d58e5;stop-opacity:1;" offset="0.40625"/><stop style="stop-color:#9c58e5;stop-opacity:1;" offset="0.410156"/><stop style="stop-color:#9c59e6;stop-opacity:1;" offset="0.414062"/><stop style="stop-color:#9b59e7;stop-opacity:1;" offset="0.417969"/><stop style="stop-color:#9a59e8;stop-opacity:1;" offset="0.421875"/><stop style="stop-color:#9959e8;stop-opacity:1;" offset="0.425781"/><stop style="stop-color:#9959e9;stop-opacity:1;" offset="0.429688"/><stop style="stop-color:#9859ea;stop-opacity:1;" offset="0.433594"/><stop style="stop-color:#975aea;stop-opacity:1;" offset="0.4375"/><stop style="stop-color:#965aeb;stop-opacity:1;" offset="0.441406"/><stop style="stop-color:#965aec;stop-opacity:1;" offset="0.445312"/><stop style="stop-color:#955aed;stop-opacity:1;" offset="0.449219"/><stop style="stop-color:#945aed;stop-opacity:1;" offset="0.453125"/><stop style="stop-color:#935aee;stop-opacity:1;" offset="0.457031"/><stop style="stop-color:#935aef;stop-opacity:1;" offset="0.460938"/><stop style="stop-color:#925bf0;stop-opacity:1;" offset="0.464844"/><stop style="stop-color:#915bf0;stop-opacity:1;" offset="0.46875"/><stop style="stop-color:#905bf1;stop-opacity:1;" offset="0.472656"/><stop style="stop-color:#905bf2;stop-opacity:1;" offset="0.476562"/><stop style="stop-color:#8f5bf2;stop-opacity:1;" offset="0.480469"/><stop style="stop-color:#8e5bf3;stop-opacity:1;" offset="0.484375"/><stop style="stop-color:#8d5cf4;stop-opacity:1;" offset="0.488281"/><stop style="stop-color:#8c5cf5;stop-opacity:1;" offset="0.492188"/><stop style="stop-color:#8c5cf5;stop-opacity:1;" offset="0.496094"/><stop style="stop-color:#8b5cf6;stop-opacity:1;" offset="0.5"/><stop style="stop-color:#8a5cf6;stop-opacity:1;" offset="0.503906"/><stop style="stop-color:#8a5df6;stop-opacity:1;" offset="0.507812"/><stop style="stop-color:#895df6;stop-opacity:1;" offset="0.511719"/><stop style="stop-color:#885df6;stop-opacity:1;" offset="0.515625"/><stop style="stop-color:#885ef6;stop-opacity:1;" offset="0.519531"/><stop style="stop-color:#875ef6;stop-opacity:1;" offset="0.523438"/><stop style="stop-color:#875ef6;stop-opacity:1;" offset="0.527344"/><stop style="stop-color:#865ef6;stop-opacity:1;" offset="0.53125"/><stop style="stop-color:#855ff6;stop-opacity:1;" offset="0.535156"/><stop style="stop-color:#855ff6;stop-opacity:1;" offset="0.539063"/><stop style="stop-color:#845ff6;stop-opacity:1;" offset="0.542969"/><stop style="stop-color:#8360f6;stop-opacity:1;" offset="0.546875"/><stop style="stop-color:#8360f6;stop-opacity:1;" offset="0.550781"/><stop style="stop-color:#8260f6;stop-opacity:1;" offset="0.554688"/><stop style="stop-color:#8261f6;stop-opacity:1;" offset="0.558594"/><stop style="stop-color:#8161f6;stop-opacity:1;" offset="0.5625"/><stop style="stop-color:#8061f6;stop-opacity:1;" offset="0.566406"/><stop style="stop-color:#8061f6;stop-opacity:1;" offset="0.570313"/><stop style="stop-color:#7f62f6;stop-opacity:1;" offset="0.574219"/><stop style="stop-color:#7e62f6;stop-opacity:1;" offset="0.578125"/><stop style="stop-color:#7e62f6;stop-opacity:1;" offset="0.582031"/><stop style="stop-color:#7d63f6;stop-opacity:1;" offset="0.585938"/><stop style="stop-color:#7d63f6;stop-opacity:1;" offset="0.589844"/><stop style="stop-color:#7c63f6;stop-opacity:1;" offset="0.59375"/><stop style="stop-color:#7b63f6;stop-opacity:1;" offset="0.597656"/><stop style="stop-color:#7b64f6;stop-opacity:1;" offset="0.601563"/><stop style="stop-color:#7a64f6;stop-opacity:1;" offset="0.605469"/><stop style="stop-color:#7964f6;stop-opacity:1;" offset="0.609375"/><stop style="stop-color:#7965f6;stop-opacity:1;" offset="0.613281"/><stop style="stop-color:#7865f6;stop-opacity:1;" offset="0.617188"/><stop style="stop-color:#7865f6;stop-opacity:1;" offset="0.621094"/><stop style="stop-color:#7766f6;stop-opacity:1;" offset="0.625"/><stop style="stop-color:#7666f6;stop-opacity:1;" offset="0.628906"/><stop style="stop-color:#7666f6;stop-opacity:1;" offset="0.632813"/><stop style="stop-color:#7566f6;stop-opacity:1;" offset="0.636719"/><stop style="stop-color:#7467f6;stop-opacity:1;" offset="0.640625"/><stop style="stop-color:#7467f6;stop-opacity:1;" offset="0.644531"/><stop style="stop-color:#7367f6;stop-opacity:1;" offset="0.648438"/><stop style="stop-color:#7368f6;stop-opacity:1;" offset="0.652344"/><stop style="stop-color:#7268f6;stop-opacity:1;" offset="0.65625"/><stop style="stop-color:#7168f6;stop-opacity:1;" offset="0.660156"/><stop style="stop-color:#7169f6;stop-opacity:1;" offset="0.664063"/><stop style="stop-color:#7069f6;stop-opacity:1;" offset="0.667969"/><stop style="stop-color:#6f69f6;stop-opacity:1;" offset="0.671875"/><stop style="stop-color:#6f69f6;stop-opacity:1;" offset="0.675781"/><stop style="stop-color:#6e6af6;stop-opacity:1;" offset="0.679688"/><stop style="stop-color:#6e6af6;stop-opacity:1;" offset="0.683594"/><stop style="stop-color:#6d6af6;stop-opacity:1;" offset="0.6875"/><stop style="stop-color:#6c6bf6;stop-opacity:1;" offset="0.691406"/><stop style="stop-color:#6c6bf6;stop-opacity:1;" offset="0.695313"/><stop style="stop-color:#6b6bf6;stop-opacity:1;" offset="0.699219"/><stop style="stop-color:#6a6bf6;stop-opacity:1;" offset="0.703125"/><stop style="stop-color:#6a6cf6;stop-opacity:1;" offset="0.707031"/><stop style="stop-color:#696cf6;stop-opacity:1;" offset="0.710938"/><stop style="stop-color:#696cf6;stop-opacity:1;" offset="0.714844"/><stop style="stop-color:#686df6;stop-opacity:1;" offset="0.71875"/><stop style="stop-color:#676df6;stop-opacity:1;" offset="0.722656"/><stop style="stop-color:#676df6;stop-opacity:1;" offset="0.726563"/><stop style="stop-color:#666ef6;stop-opacity:1;" offset="0.730469"/><stop style="stop-color:#656ef6;stop-opacity:1;" offset="0.734375"/><stop style="stop-color:#656ef6;stop-opacity:1;" offset="0.738281"/><stop style="stop-color:#646ef6;stop-opacity:1;" offset="0.742188"/><stop style="stop-color:#646ff6;stop-opacity:1;" offset="0.746094"/><stop style="stop-color:#636ff6;stop-opacity:1;" offset="0.75"/><stop style="stop-color:#626ff6;stop-opacity:1;" offset="0.753906"/><stop style="stop-color:#6270f6;stop-opacity:1;" offset="0.757812"/><stop style="stop-color:#6170f6;stop-opacity:1;" offset="0.761719"/><stop style="stop-color:#6070f6;stop-opacity:1;" offset="0.765625"/><stop style="stop-color:#6071f6;stop-opacity:1;" offset="0.769531"/><stop style="stop-color:#5f71f6;stop-opacity:1;" offset="0.773438"/><stop style="stop-color:#5f71f6;stop-opacity:1;" offset="0.777344"/><stop style="stop-color:#5e71f6;stop-opacity:1;" offset="0.78125"/><stop style="stop-color:#5d72f6;stop-opacity:1;" offset="0.785156"/><stop style="stop-color:#5d72f6;stop-opacity:1;" offset="0.789062"/><stop style="stop-color:#5c72f6;stop-opacity:1;" offset="0.792969"/><stop style="stop-color:#5b73f6;stop-opacity:1;" offset="0.796875"/><stop style="stop-color:#5b73f6;stop-opacity:1;" offset="0.800781"/><stop style="stop-color:#5a73f6;stop-opacity:1;" offset="0.804688"/><stop style="stop-color:#5a74f6;stop-opacity:1;" offset="0.808594"/><stop style="stop-color:#5974f6;stop-opacity:1;" offset="0.8125"/><stop style="stop-color:#5874f6;stop-opacity:1;" offset="0.816406"/><stop style="stop-color:#5874f6;stop-opacity:1;" offset="0.820312"/><stop style="stop-color:#5775f6;stop-opacity:1;" offset="0.824219"/><stop style="stop-color:#5675f6;stop-opacity:1;" offset="0.828125"/><stop style="stop-color:#5675f6;stop-opacity:1;" offset="0.832031"/><stop style="stop-color:#5576f6;stop-opacity:1;" offset="0.835938"/><stop style="stop-color:#5576f6;stop-opacity:1;" offset="0.839844"/><stop style="stop-color:#5476f6;stop-opacity:1;" offset="0.84375"/><stop style="stop-color:#5376f6;stop-opacity:1;" offset="0.847656"/><stop style="stop-color:#5377f6;stop-opacity:1;" offset="0.851562"/><stop style="stop-color:#5277f6;stop-opacity:1;" offset="0.855469"/><stop style="stop-color:#5177f6;stop-opacity:1;" offset="0.859375"/><stop style="stop-color:#5178f6;stop-opacity:1;" offset="0.863281"/><stop style="stop-color:#5078f6;stop-opacity:1;" offset="0.867188"/><stop style="stop-color:#5078f6;stop-opacity:1;" offset="0.871094"/><stop style="stop-color:#4f79f6;stop-opacity:1;" offset="0.875"/><stop style="stop-color:#4e79f6;stop-opacity:1;" offset="0.878906"/><stop style="stop-color:#4e79f6;stop-opacity:1;" offset="0.882812"/><stop style="stop-color:#4d79f6;stop-opacity:1;" offset="0.886719"/><stop style="stop-color:#4c7af6;stop-opacity:1;" offset="0.890625"/><stop style="stop-color:#4c7af6;stop-opacity:1;" offset="0.894531"/><stop style="stop-color:#4b7af6;stop-opacity:1;" offset="0.898438"/><stop style="stop-color:#4b7bf6;stop-opacity:1;" offset="0.902344"/><stop style="stop-color:#4a7bf6;stop-opacity:1;" offset="0.90625"/><stop style="stop-color:#497bf6;stop-opacity:1;" offset="0.910156"/><stop style="stop-color:#497cf6;stop-opacity:1;" offset="0.914062"/><stop style="stop-color:#487cf6;stop-opacity:1;" offset="0.917969"/><stop style="stop-color:#477cf6;stop-opacity:1;" offset="0.921875"/><stop style="stop-color:#477cf6;stop-opacity:1;" offset="0.925781"/><stop style="stop-color:#467df6;stop-opacity:1;" offset="0.929688"/><stop style="stop-color:#467df6;stop-opacity:1;" offset="0.933594"/><stop style="stop-color:#457df6;stop-opacity:1;" offset="0.9375"/><stop style="stop-color:#447ef6;stop-opacity:1;" offset="0.941406"/><stop style="stop-color:#447ef6;stop-opacity:1;" offset="0.945312"/><stop style="stop-color:#437ef6;stop-opacity:1;" offset="0.949219"/><stop style="stop-color:#427ef6;stop-opacity:1;" offset="0.953125"/><stop style="stop-color:#427ff6;stop-opacity:1;" offset="0.957031"/><stop style="stop-color:#417ff6;stop-opacity:1;" offset="0.960938"/><stop style="stop-color:#417ff6;stop-opacity:1;" offset="0.964844"/><stop style="stop-color:#4080f6;stop-opacity:1;" offset="0.96875"/><stop style="stop-color:#3f80f6;stop-opacity:1;" offset="0.972656"/><stop style="stop-color:#3f80f6;stop-opacity:1;" offset="0.976562"/><stop style="stop-color:#3e81f6;stop-opacity:1;" offset="0.980469"/><stop style="stop-color:#3d81f6;stop-opacity:1;" offset="0.984375"/><stop style="stop-color:#3d81f6;stop-opacity:1;" offset="0.988281"/><stop style="stop-color:#3c81f6;stop-opacity:1;" offset="0.992188"/><stop style="stop-color:#3c82f6;stop-opacity:1;" offset="0.996094"/><stop style="stop-color:#3b82f6;stop-opacity:1;" offset="1"/></linearGradient><clipPath id="b4983f3f14"><path d="M 155.226562 129 L 654.726562 129 L 654.726562 681 L 155.226562 681 Z M 155.226562 129 "/></clipPath></defs><g id="23fd6897a9"><g clip-rule="nonzero" clip-path="url(#4c097dfa3f)"><rect x="0" width="810" y="0" height="809.999993" style="fill:url(#a1e76ec301);stroke:none;"/></g><g clip-rule="nonzero" clip-path="url(#b4983f3f14)"><path style=" stroke:none;fill-rule:nonzero;fill:#ffffff;fill-opacity:1;" d="M 614.15625 352.949219 C 629.210938 335.878906 638.378906 313.480469 638.378906 288.945312 C 638.378906 235.46875 595.042969 192.15625 541.59375 192.15625 C 531.574219 192.15625 521.894531 193.664062 512.800781 196.511719 C 500.300781 157.480469 463.773438 129.234375 420.609375 129.234375 C 381.992188 129.234375 348.675781 151.839844 333.136719 184.546875 C 322.023438 180.097656 309.914062 177.617188 297.195312 177.617188 C 243.742188 177.617188 200.410156 220.949219 200.410156 274.402344 C 200.410156 283.835938 201.769531 292.933594 204.277344 301.539062 C 175.019531 318.175781 155.226562 349.617188 155.226562 385.730469 C 155.226562 430.546875 185.746094 468.265625 227.109375 479.257812 C 227.085938 480.351562 227.039062 481.421875 227.039062 482.515625 C 227.039062 531.566406 263.515625 572.054688 310.8125 578.402344 C 315.726562 603.71875 314.65625 644.328125 273.753906 680.683594 C 273.753906 680.683594 369.90625 663.976562 442.472656 603.425781 C 443.25 603.449219 444.003906 603.5 444.804688 603.5 C 491.398438 603.5 530.285156 570.570312 539.523438 526.703125 C 545.484375 527.867188 551.636719 528.476562 557.933594 528.476562 C 611.386719 528.476562 654.71875 485.140625 654.71875 431.691406 C 654.71875 399.226562 638.695312 370.507812 614.15625 352.949219 "/></g><path style=" stroke:none;fill-rule:nonzero;fill:#b4b4b4;fill-opacity:1;" d="M 527.027344 306.9375 C 527.027344 317.46875 518.515625 325.980469 507.984375 325.980469 L 284.183594 325.980469 C 273.65625 325.980469 265.144531 317.46875 265.144531 306.9375 C 265.144531 296.433594 273.65625 287.898438 284.183594 287.898438 L 507.984375 287.898438 C 518.515625 287.898438 527.027344 296.433594 527.027344 306.9375 "/><path style=" stroke:none;fill-rule:nonzero;fill:#b4b4b4;fill-opacity:1;" d="M 527.027344 456.910156 C 527.027344 467.414062 518.515625 475.949219 507.984375 475.949219 L 284.183594 475.949219 C 273.65625 475.949219 265.144531 467.414062 265.144531 456.910156 C 265.144531 446.378906 273.65625 437.84375 284.183594 437.84375 L 507.984375 437.84375 C 518.515625 437.84375 527.027344 446.378906 527.027344 456.910156 "/><path style=" stroke:none;fill-rule:nonzero;fill:#b4b4b4;fill-opacity:1;" d="M 370.441406 379.554688 C 370.441406 390.082031 361.90625 398.59375 351.398438 398.59375 L 284.183594 398.59375 C 273.65625 398.59375 265.144531 390.082031 265.144531 379.554688 C 265.144531 369.046875 273.65625 360.511719 284.183594 360.511719 L 351.398438 360.511719 C 361.90625 360.511719 370.441406 369.046875 370.441406 379.554688 "/></g></svg>